<svg xmlns="http://www.w3.org/2000/svg" viewBox="0 0 600 320" width="600" height="320">
  <defs>
    <linearGradient id="bg4" x1="0%" y1="0%" x2="100%" y2="100%">
      <stop offset="0%" style="stop-color:#0d1117"/>
      <stop offset="100%" style="stop-color:#161b22"/>
    </linearGradient>
  </defs>

  <rect width="600" height="320" fill="url(#bg4)"/>

  <!-- GitHub-style header -->
  <rect x="0" y="0" width="600" height="48" fill="#161b22" stroke="#30363d" stroke-width="0"/>
  <rect x="0" y="48" width="600" height="1" fill="#30363d"/>

  <!-- GitHub logo mark -->
  <circle cx="30" cy="24" r="14" fill="#f0f6fc"/>
  <text x="30" y="29" font-family="Arial" font-size="16" fill="#0d1117" text-anchor="middle" font-weight="bold">⌥</text>

  <!-- Nav items -->
  <rect x="55" y="18" width="45" height="12" rx="3" fill="#21262d"/>
  <rect x="108" y="18" width="45" height="12" rx="3" fill="#21262d"/>
  <rect x="161" y="18" width="45" height="12" rx="3" fill="#21262d"/>
  <rect x="520" y="14" width="70" height="20" rx="6" fill="#238636"/>
  <rect x="530" y="20" width="50" height="8" rx="2" fill="#2ea043" opacity="0.5"/>

  <!-- Repo header -->
  <rect x="20" y="62" width="560" height="50" fill="#161b22"/>
  <!-- Breadcrumb -->
  <text x="30" y="82" font-family="monospace" font-size="12" fill="#58a6ff">ChaninduImanjith</text>
  <text x="183" y="82" font-family="monospace" font-size="12" fill="#8b949e"> / </text>
  <text x="198" y="82" font-family="monospace" font-size="12" fill="#58a6ff" font-weight="bold">Github-for-beginners</text>
  <rect x="290" y="72" width="52" height="14" rx="10" fill="#1f6feb22" stroke="#1f6feb" stroke-width="1"/>
  <text x="316" y="82" font-family="Arial" font-size="8" fill="#58a6ff" text-anchor="middle">Public</text>

  <!-- Star / Fork buttons -->
  <rect x="460" y="72" width="55" height="18" rx="4" fill="#21262d" stroke="#30363d" stroke-width="1"/>
  <text x="487" y="84" font-family="Arial" font-size="8" fill="#c9d1d9" text-anchor="middle">⭐ Star  14</text>
  <rect x="522" y="72" width="52" height="18" rx="4" fill="#21262d" stroke="#30363d" stroke-width="1"/>
  <text x="548" y="84" font-family="Arial" font-size="8" fill="#c9d1d9" text-anchor="middle">⑂ Fork  7</text>

  <!-- Tab bar -->
  <rect x="0" y="112" width="600" height="1" fill="#30363d"/>
  <rect x="20" y="96" width="50" height="16" rx="0" fill="none" stroke="none"/>
  <text x="20" y="108" font-family="Arial" font-size="9" fill="#f0f6fc">📋 Code</text>
  <rect x="20" y="111" width="50" height="2" fill="#f9826c" rx="1"/>
  <text x="76" y="108" font-family="Arial" font-size="9" fill="#8b949e">⚠ Issues  3</text>
  <text x="140" y="108" font-family="Arial" font-size="9" fill="#8b949e">⑂ Pull req  1</text>

  <!-- File browser -->
  <rect x="20" y="122" width="370" height="180" rx="6" fill="#161b22" stroke="#30363d" stroke-width="1"/>
  <!-- File browser header -->
  <rect x="20" y="122" width="370" height="36" rx="6" fill="#21262d"/>
  <rect x="20" y="146" width="370" height="12" fill="#21262d"/>
  <circle cx="44" cy="140" r="10" fill="#30363d"/>
  <text x="44" y="144" font-family="Arial" font-size="8" fill="#8b949e" text-anchor="middle">CI</text>
  <text x="65" y="138" font-family="monospace" font-size="8" fill="#c9d1d9">main</text>
  <text x="65" y="148" font-family="Arial" font-size="7" fill="#8b949e">initial commit · 3 days ago</text>

  <!-- File rows -->
  <rect x="20" y="158" width="370" height="1" fill="#30363d"/>
  <text x="40" y="174" font-family="monospace" font-size="9" fill="#58a6ff">📁 .github/workflows</text>
  <text x="310" y="174" font-family="monospace" font-size="8" fill="#8b949e">3 days ago</text>
  <rect x="20" y="178" width="370" height="1" fill="#21262d"/>

  <text x="40" y="194" font-family="monospace" font-size="9" fill="#58a6ff">📁 docs</text>
  <text x="310" y="194" font-family="monospace" font-size="8" fill="#8b949e">3 days ago</text>
  <rect x="20" y="198" width="370" height="1" fill="#21262d"/>

  <text x="40" y="214" font-family="monospace" font-size="9" fill="#e3b341">📄 .gitignore</text>
  <text x="310" y="214" font-family="monospace" font-size="8" fill="#8b949e">3 days ago</text>
  <rect x="20" y="218" width="370" height="1" fill="#21262d"/>

  <text x="40" y="234" font-family="monospace" font-size="9" fill="#e3b341">📄 CONTRIBUTING.md</text>
  <text x="310" y="234" font-family="monospace" font-size="8" fill="#8b949e">3 days ago</text>
  <rect x="20" y="238" width="370" height="1" fill="#21262d"/>

  <text x="40" y="254" font-family="monospace" font-size="9" fill="#e3b341">📄 README.md</text>
  <text x="310" y="254" font-family="monospace" font-size="8" fill="#8b949e">3 days ago</text>
  <rect x="20" y="258" width="370" height="1" fill="#21262d"/>

  <text x="40" y="274" font-family="monospace" font-size="9" fill="#e3b341">📄 LICENSE</text>
  <text x="310" y="274" font-family="monospace" font-size="8" fill="#8b949e">3 days ago</text>
  <rect x="20" y="278" width="370" height="1" fill="#21262d"/>
  <text x="40" y="294" font-family="monospace" font-size="9" fill="#e3b341">📄 git-cheatsheet.md</text>
  <text x="310" y="294" font-family="monospace" font-size="8" fill="#8b949e">3 days ago</text>

  <!-- README panel -->
  <rect x="400" y="122" width="180" height="180" rx="6" fill="#161b22" stroke="#30363d" stroke-width="1"/>
  <rect x="400" y="122" width="180" height="24" rx="6" fill="#21262d"/>
  <rect x="400" y="134" width="180" height="12" fill="#21262d"/>
  <text x="490" y="137" font-family="Arial" font-size="8" fill="#8b949e" text-anchor="middle">📄 README.md</text>
  <text x="415" y="162" font-family="Arial" font-size="10" fill="#f0f6fc" font-weight="bold">GitHub for</text>
  <text x="415" y="176" font-family="Arial" font-size="10" fill="#f0f6fc" font-weight="bold">Beginners 🐙</text>
  <rect x="415" y="182" width="150" height="2" rx="1" fill="#30363d"/>
  <rect x="415" y="190" width="140" height="4" rx="2" fill="#21262d"/>
  <rect x="415" y="198" width="120" height="4" rx="2" fill="#21262d"/>
  <rect x="415" y="206" width="130" height="4" rx="2" fill="#21262d"/>
  <rect x="415" y="214" width="110" height="4" rx="2" fill="#21262d"/>
  <rect x="415" y="226" width="60" height="14" rx="3" fill="#238636"/>
  <text x="445" y="237" font-family="Arial" font-size="7" fill="white" text-anchor="middle">Get Started</text>
  <rect x="482" y="226" width="50" height="14" rx="3" fill="#1f6feb"/>
  <text x="507" y="237" font-family="Arial" font-size="7" fill="white" text-anchor="middle">Docs</text>

  <!-- Activity heatmap bottom -->
  <rect x="400" y="260" width="180" height="42" rx="4" fill="#0d1117" stroke="#30363d" stroke-width="1"/>
  <text x="490" y="274" font-family="Arial" font-size="7" fill="#8b949e" text-anchor="middle">Contribution Activity</text>
  <!-- Heatmap squares -->
  <g opacity="0.8">
    <rect x="408" y="280" width="6" height="6" rx="1" fill="#0e4429"/>
    <rect x="416" y="280" width="6" height="6" rx="1" fill="#006d32"/>
    <rect x="424" y="280" width="6" height="6" rx="1" fill="#26a641"/>
    <rect x="432" y="280" width="6" height="6" rx="1" fill="#39d353"/>
    <rect x="440" y="280" width="6" height="6" rx="1" fill="#0e4429"/>
    <rect x="448" y="280" width="6" height="6" rx="1" fill="#26a641"/>
    <rect x="456" y="280" width="6" height="6" rx="1" fill="#39d353"/>
    <rect x="464" y="280" width="6" height="6" rx="1" fill="#006d32"/>
    <rect x="472" y="280" width="6" height="6" rx="1" fill="#39d353"/>
    <rect x="480" y="280" width="6" height="6" rx="1" fill="#26a641"/>
    <rect x="488" y="280" width="6" height="6" rx="1" fill="#0e4429"/>
    <rect x="496" y="280" width="6" height="6" rx="1" fill="#39d353"/>
    <rect x="504" y="280" width="6" height="6" rx="1" fill="#006d32"/>
    <rect x="512" y="280" width="6" height="6" rx="1" fill="#26a641"/>
    <rect x="520" y="280" width="6" height="6" rx="1" fill="#39d353"/>
    <rect x="528" y="280" width="6" height="6" rx="1" fill="#0e4429"/>
    <rect x="536" y="280" width="6" height="6" rx="1" fill="#39d353"/>
    <rect x="544" y="280" width="6" height="6" rx="1" fill="#26a641"/>
    <rect x="552" y="280" width="6" height="6" rx="1" fill="#006d32"/>
    <rect x="560" y="280" width="6" height="6" rx="1" fill="#39d353"/>
    <rect x="568" y="280" width="6" height="6" rx="1" fill="#0e4429"/>
  </g>
</svg>
