<svg xmlns="http://www.w3.org/2000/svg" viewBox="0 0 600 320" width="600" height="320">
  <defs>
    <linearGradient id="bg6" x1="0%" y1="0%" x2="100%" y2="100%">
      <stop offset="0%" style="stop-color:#0a1628"/>
      <stop offset="100%" style="stop-color:#0f2040"/>
    </linearGradient>
    <linearGradient id="accent6" x1="0%" y1="0%" x2="100%" y2="0%">
      <stop offset="0%" style="stop-color:#2563eb"/>
      <stop offset="100%" style="stop-color:#1d4ed8"/>
    </linearGradient>
  </defs>

  <rect width="600" height="320" fill="url(#bg6)"/>

  <!-- App chrome -->
  <rect x="20" y="18" width="560" height="284" rx="8" fill="#0d1e38" stroke="#1e3a6e" stroke-width="1"/>

  <!-- Top header bar -->
  <rect x="20" y="18" width="560" height="44" rx="8" fill="url(#accent6)"/>
  <rect x="20" y="50" width="560" height="12" fill="url(#accent6)"/>

  <!-- App title -->
  <text x="44" y="46" font-family="Arial" font-size="13" fill="white" font-weight="bold">👨‍💼 Employee Registration System</text>
  <!-- User avatar top right -->
  <circle cx="556" cy="40" r="14" fill="#1d4ed8"/>
  <text x="556" y="44" font-family="Arial" font-size="9" fill="white" text-anchor="middle">AD</text>

  <!-- Sidebar -->
  <rect x="20" y="62" width="140" height="240" fill="#0a1628"/>
  <rect x="160" y="62" width="1" height="240" fill="#1e3a6e"/>

  <!-- Sidebar items -->
  <rect x="28" y="75" width="124" height="28" rx="4" fill="#1e3a6e"/>
  <text x="44" y="94" font-family="Arial" font-size="10" fill="#60a5fa">👥  Employees</text>
  <text x="44" y="120" font-family="Arial" font-size="10" fill="#4a6a8a">🏢  Departments</text>
  <text x="44" y="144" font-family="Arial" font-size="10" fill="#4a6a8a">➕  Add Employee</text>
  <text x="44" y="168" font-family="Arial" font-size="10" fill="#4a6a8a">📊  Reports</text>
  <text x="44" y="192" font-family="Arial" font-size="10" fill="#4a6a8a">⚙️  Settings</text>

  <!-- Stats strip -->
  <rect x="168" y="68" width="100" height="46" rx="5" fill="#112240" stroke="#1e3a6e" stroke-width="1"/>
  <text x="218" y="85" font-family="Arial" font-size="16" fill="#60a5fa" text-anchor="middle" font-weight="bold">148</text>
  <text x="218" y="98" font-family="Arial" font-size="7" fill="#4a6a8a" text-anchor="middle">EMPLOYEES</text>
  <rect x="276" y="68" width="100" height="46" rx="5" fill="#112240" stroke="#1e3a6e" stroke-width="1"/>
  <text x="326" y="85" font-family="Arial" font-size="16" fill="#10b981" text-anchor="middle" font-weight="bold">12</text>
  <text x="326" y="98" font-family="Arial" font-size="7" fill="#4a6a8a" text-anchor="middle">DEPARTMENTS</text>
  <rect x="384" y="68" width="100" height="46" rx="5" fill="#112240" stroke="#1e3a6e" stroke-width="1"/>
  <text x="434" y="85" font-family="Arial" font-size="16" fill="#f59e0b" text-anchor="middle" font-weight="bold">6</text>
  <text x="434" y="98" font-family="Arial" font-size="7" fill="#4a6a8a" text-anchor="middle">NEW THIS MONTH</text>
  <rect x="492" y="68" width="80" height="46" rx="5" fill="#112240" stroke="#1e3a6e" stroke-width="1"/>
  <text x="532" y="85" font-family="Arial" font-size="16" fill="#ef4444" text-anchor="middle" font-weight="bold">3</text>
  <text x="532" y="98" font-family="Arial" font-size="7" fill="#4a6a8a" text-anchor="middle">ON LEAVE</text>

  <!-- Employee table -->
  <rect x="168" y="122" width="408" height="172" rx="6" fill="#0d1e38" stroke="#1e3a6e" stroke-width="1"/>
  <!-- Table header -->
  <rect x="168" y="122" width="408" height="24" rx="6" fill="#112240"/>
  <rect x="168" y="135" width="408" height="11" fill="#112240"/>

  <text x="184" y="138" font-family="Arial" font-size="8" fill="#60a5fa" font-weight="bold">ID</text>
  <text x="208" y="138" font-family="Arial" font-size="8" fill="#60a5fa" font-weight="bold">Name</text>
  <text x="310" y="138" font-family="Arial" font-size="8" fill="#60a5fa" font-weight="bold">Department</text>
  <text x="416" y="138" font-family="Arial" font-size="8" fill="#60a5fa" font-weight="bold">Role</text>
  <text x="496" y="138" font-family="Arial" font-size="8" fill="#60a5fa" font-weight="bold">Status</text>

  <!-- Table rows -->
  <!-- Row 1 -->
  <circle cx="200" cy="157" r="9" fill="#1e3a6e"/>
  <text x="200" y="161" font-family="Arial" font-size="7" fill="#60a5fa" text-anchor="middle">AJ</text>
  <text x="184" y="162" font-family="Arial" font-size="8" fill="#4a6a8a">#001</text>
  <text x="218" y="162" font-family="Arial" font-size="8" fill="#c9d1d9">Amal Jayasena</text>
  <text x="310" y="162" font-family="Arial" font-size="8" fill="#8892b0">Engineering</text>
  <text x="416" y="162" font-family="Arial" font-size="8" fill="#8892b0">Senior Dev</text>
  <rect x="492" y="154" width="46" height="12" rx="6" fill="#0e4429"/>
  <text x="515" y="163" font-family="Arial" font-size="7" fill="#10b981" text-anchor="middle">Active</text>
  <rect x="168" y="168" width="408" height="1" fill="#1a2d42"/>

  <!-- Row 2 -->
  <circle cx="200" cy="179" r="9" fill="#1e3a6e"/>
  <text x="200" y="183" font-family="Arial" font-size="7" fill="#f59e0b" text-anchor="middle">SK</text>
  <text x="184" y="184" font-family="Arial" font-size="8" fill="#4a6a8a">#002</text>
  <text x="218" y="184" font-family="Arial" font-size="8" fill="#c9d1d9">Saman Kumara</text>
  <text x="310" y="184" font-family="Arial" font-size="8" fill="#8892b0">Marketing</text>
  <text x="416" y="184" font-family="Arial" font-size="8" fill="#8892b0">Manager</text>
  <rect x="492" y="176" width="46" height="12" rx="6" fill="#0e4429"/>
  <text x="515" y="185" font-family="Arial" font-size="7" fill="#10b981" text-anchor="middle">Active</text>
  <rect x="168" y="190" width="408" height="1" fill="#1a2d42"/>

  <!-- Row 3 -->
  <circle cx="200" cy="201" r="9" fill="#1e3a6e"/>
  <text x="200" y="205" font-family="Arial" font-size="7" fill="#10b981" text-anchor="middle">NP</text>
  <text x="184" y="206" font-family="Arial" font-size="8" fill="#4a6a8a">#003</text>
  <text x="218" y="206" font-family="Arial" font-size="8" fill="#c9d1d9">Nimal Perera</text>
  <text x="310" y="206" font-family="Arial" font-size="8" fill="#8892b0">HR</text>
  <text x="416" y="206" font-family="Arial" font-size="8" fill="#8892b0">HR Lead</text>
  <rect x="492" y="198" width="46" height="12" rx="6" fill="#2a1500"/>
  <text x="515" y="207" font-family="Arial" font-size="7" fill="#f59e0b" text-anchor="middle">On Leave</text>
  <rect x="168" y="212" width="408" height="1" fill="#1a2d42"/>

  <!-- Row 4 -->
  <circle cx="200" cy="223" r="9" fill="#1e3a6e"/>
  <text x="200" y="227" font-family="Arial" font-size="7" fill="#ef4444" text-anchor="middle">DP</text>
  <text x="184" y="228" font-family="Arial" font-size="8" fill="#4a6a8a">#004</text>
  <text x="218" y="228" font-family="Arial" font-size="8" fill="#c9d1d9">Dilmi Pathirana</text>
  <text x="310" y="228" font-family="Arial" font-size="8" fill="#8892b0">Finance</text>
  <text x="416" y="228" font-family="Arial" font-size="8" fill="#8892b0">Analyst</text>
  <rect x="492" y="220" width="46" height="12" rx="6" fill="#0e4429"/>
  <text x="515" y="229" font-family="Arial" font-size="7" fill="#10b981" text-anchor="middle">Active</text>
  <rect x="168" y="234" width="408" height="1" fill="#1a2d42"/>

  <!-- Row 5 -->
  <circle cx="200" cy="245" r="9" fill="#1e3a6e"/>
  <text x="200" y="249" font-family="Arial" font-size="7" fill="#8b5cf6" text-anchor="middle">RS</text>
  <text x="184" y="250" font-family="Arial" font-size="8" fill="#4a6a8a">#005</text>
  <text x="218" y="250" font-family="Arial" font-size="8" fill="#c9d1d9">Rangi Silva</text>
  <text x="310" y="250" font-family="Arial" font-size="8" fill="#8892b0">Engineering</text>
  <text x="416" y="250" font-family="Arial" font-size="8" fill="#8892b0">Junior Dev</text>
  <rect x="492" y="242" width="46" height="12" rx="6" fill="#0e4429"/>
  <text x="515" y="251" font-family="Arial" font-size="7" fill="#10b981" text-anchor="middle">Active</text>
  <rect x="168" y="256" width="408" height="1" fill="#1a2d42"/>

  <!-- Row 6 -->
  <circle cx="200" cy="267" r="9" fill="#1e3a6e"/>
  <text x="200" y="271" font-family="Arial" font-size="7" fill="#06b6d4" text-anchor="middle">TW</text>
  <text x="184" y="272" font-family="Arial" font-size="8" fill="#4a6a8a">#006</text>
  <text x="218" y="272" font-family="Arial" font-size="8" fill="#c9d1d9">Tharaka Wijeratne</text>
  <text x="310" y="272" font-family="Arial" font-size="8" fill="#8892b0">DevOps</text>
  <text x="416" y="272" font-family="Arial" font-size="8" fill="#8892b0">DevOps Eng</text>
  <rect x="492" y="264" width="46" height="12" rx="6" fill="#0e4429"/>
  <text x="515" y="273" font-family="Arial" font-size="7" fill="#10b981" text-anchor="middle">Active</text>

  <!-- Pagination -->
  <text x="184" y="290" font-family="Arial" font-size="8" fill="#4a6a8a">Showing 1–6 of 148 employees</text>
  <rect x="488" y="280" width="20" height="14" rx="3" fill="#1e3a6e"/>
  <text x="498" y="290" font-family="Arial" font-size="8" fill="#60a5fa" text-anchor="middle">‹</text>
  <rect x="512" y="280" width="20" height="14" rx="3" fill="#2563eb"/>
  <text x="522" y="290" font-family="Arial" font-size="8" fill="white" text-anchor="middle">1</text>
  <rect x="536" y="280" width="20" height="14" rx="3" fill="#1e3a6e"/>
  <text x="546" y="290" font-family="Arial" font-size="8" fill="#60a5fa" text-anchor="middle">›</text>
</svg>
