<svg xmlns="http://www.w3.org/2000/svg" viewBox="0 0 600 320" width="600" height="320">
  <defs>
    <linearGradient id="bg7" x1="0%" y1="0%" x2="100%" y2="100%">
      <stop offset="0%" style="stop-color:#050d18"/>
      <stop offset="100%" style="stop-color:#071020"/>
    </linearGradient>
    <linearGradient id="react7" x1="0%" y1="0%" x2="100%" y2="100%">
      <stop offset="0%" style="stop-color:#0ea5e9"/>
      <stop offset="100%" style="stop-color:#2563eb"/>
    </linearGradient>
  </defs>

  <rect width="600" height="320" fill="url(#bg7)"/>

  <!-- React-style app window -->
  <rect x="15" y="14" width="570" height="292" rx="10" fill="#0f1924" stroke="#1e344e" stroke-width="1"/>

  <!-- Browser chrome -->
  <rect x="15" y="14" width="570" height="32" rx="10" fill="#172030"/>
  <rect x="15" y="34" width="570" height="12" fill="#172030"/>
  <circle cx="34" cy="30" r="5" fill="#ff5f57"/>
  <circle cx="50" cy="30" r="5" fill="#febc2e"/>
  <circle cx="66" cy="30" r="5" fill="#28c840"/>

  <!-- URL bar -->
  <rect x="90" y="20" width="300" height="20" rx="4" fill="#0d1827" stroke="#1e344e" stroke-width="1"/>
  <text x="100" y="33" font-family="monospace" font-size="8" fill="#4a7ab5">🔒  localhost:3000/students</text>

  <!-- React logo tiny -->
  <circle cx="560" cy="30" r="8" fill="#0ea5e9" opacity="0.15"/>
  <text x="560" y="34" font-family="Arial" font-size="10" fill="#0ea5e9" text-anchor="middle">⚛</text>

  <!-- Navbar -->
  <rect x="15" y="46" width="570" height="40" fill="#0d1827" stroke="#1e344e" stroke-width="0"/>
  <rect x="15" y="86" width="570" height="1" fill="#1e344e"/>

  <text x="35" y="72" font-family="Arial" font-size="13" fill="#0ea5e9" font-weight="bold">🎓 UniEnroll</text>
  <text x="200" y="71" font-family="Arial" font-size="9" fill="#4a7ab5">Dashboard</text>
  <text x="268" y="71" font-family="Arial" font-size="9" fill="#60a5fa">Students</text>
  <rect x="262" y="82" width="48" height="2" fill="#0ea5e9" rx="1"/>
  <text x="340" y="71" font-family="Arial" font-size="9" fill="#4a7ab5">Courses</text>
  <text x="408" y="71" font-family="Arial" font-size="9" fill="#4a7ab5">Reports</text>

  <rect x="520" y="57" width="50" height="20" rx="5" fill="url(#react7)"/>
  <text x="545" y="71" font-family="Arial" font-size="8" fill="white" text-anchor="middle">+ Enroll</text>

  <!-- Search + filter bar -->
  <rect x="25" y="95" width="250" height="26" rx="5" fill="#0d1827" stroke="#1e344e" stroke-width="1"/>
  <text x="40" y="112" font-family="monospace" font-size="9" fill="#4a7ab5">🔍  Search students...</text>
  <rect x="284" y="95" width="100" height="26" rx="5" fill="#0d1827" stroke="#1e344e" stroke-width="1"/>
  <text x="334" y="112" font-family="Arial" font-size="8" fill="#60a5fa" text-anchor="middle">▼  All Years</text>
  <rect x="393" y="95" width="100" height="26" rx="5" fill="#0d1827" stroke="#1e344e" stroke-width="1"/>
  <text x="443" y="112" font-family="Arial" font-size="8" fill="#60a5fa" text-anchor="middle">▼  All Courses</text>

  <!-- Student cards grid -->
  <!-- Card 1 -->
  <rect x="25" y="130" width="165" height="90" rx="7" fill="#0d1827" stroke="#1e344e" stroke-width="1"/>
  <circle cx="50" cy="158" r="14" fill="#0ea5e913"/>
  <text x="50" y="163" font-family="Arial" font-size="13" fill="#0ea5e9" text-anchor="middle">👤</text>
  <text x="72" y="150" font-family="Arial" font-size="9" fill="#c9d1d9" font-weight="bold">Kavindu Perera</text>
  <text x="72" y="162" font-family="monospace" font-size="7" fill="#4a7ab5">SE/2023/001</text>
  <text x="72" y="173" font-family="Arial" font-size="7" fill="#8892b0">Year 2 · Software Eng</text>
  <rect x="33" y="181" width="50" height="12" rx="6" fill="#0e4429"/>
  <text x="58" y="190" font-family="Arial" font-size="7" fill="#10b981" text-anchor="middle">Enrolled</text>
  <text x="135" y="190" font-family="monospace" font-size="7" fill="#4a7ab5">GPA: 3.8</text>

  <!-- Card 2 -->
  <rect x="200" y="130" width="165" height="90" rx="7" fill="#0d1827" stroke="#1e344e" stroke-width="1"/>
  <circle cx="225" cy="158" r="14" fill="#f59e0b13"/>
  <text x="225" y="163" font-family="Arial" font-size="13" fill="#f59e0b" text-anchor="middle">👤</text>
  <text x="247" y="150" font-family="Arial" font-size="9" fill="#c9d1d9" font-weight="bold">Sachini Mendis</text>
  <text x="247" y="162" font-family="monospace" font-size="7" fill="#4a7ab5">CS/2022/042</text>
  <text x="247" y="173" font-family="Arial" font-size="7" fill="#8892b0">Year 3 · Computer Sci</text>
  <rect x="208" y="181" width="50" height="12" rx="6" fill="#0e4429"/>
  <text x="233" y="190" font-family="Arial" font-size="7" fill="#10b981" text-anchor="middle">Enrolled</text>
  <text x="310" y="190" font-family="monospace" font-size="7" fill="#4a7ab5">GPA: 3.5</text>

  <!-- Card 3 -->
  <rect x="375" y="130" width="165" height="90" rx="7" fill="#0d1827" stroke="#1e344e" stroke-width="1"/>
  <circle cx="400" cy="158" r="14" fill="#10b98113"/>
  <text x="400" y="163" font-family="Arial" font-size="13" fill="#10b981" text-anchor="middle">👤</text>
  <text x="422" y="150" font-family="Arial" font-size="9" fill="#c9d1d9" font-weight="bold">Tharaka Ratne</text>
  <text x="422" y="162" font-family="monospace" font-size="7" fill="#4a7ab5">IT/2024/007</text>
  <text x="422" y="173" font-family="Arial" font-size="7" fill="#8892b0">Year 1 · Info Tech</text>
  <rect x="383" y="181" width="50" height="12" rx="6" fill="#0e4429"/>
  <text x="408" y="190" font-family="Arial" font-size="7" fill="#10b981" text-anchor="middle">Enrolled</text>
  <text x="485" y="190" font-family="monospace" font-size="7" fill="#4a7ab5">GPA: 3.9</text>

  <!-- Registration form panel -->
  <rect x="25" y="230" width="260" height="74" rx="7" fill="#0d1827" stroke="#1e344e" stroke-width="1"/>
  <text x="40" y="248" font-family="Arial" font-size="9" fill="#60a5fa" font-weight="bold">New Student Enrollment</text>
  <rect x="35" y="255" width="110" height="14" rx="3" fill="#0a1628" stroke="#1e344e" stroke-width="1"/>
  <text x="42" y="265" font-family="Arial" font-size="7" fill="#4a7ab5">First Name</text>
  <rect x="155" y="255" width="115" height="14" rx="3" fill="#0a1628" stroke="#1e344e" stroke-width="1"/>
  <text x="162" y="265" font-family="Arial" font-size="7" fill="#4a7ab5">Last Name</text>
  <rect x="35" y="273" width="235" height="14" rx="3" fill="#0a1628" stroke="#0ea5e9" stroke-width="1"/>
  <text x="42" y="283" font-family="Arial" font-size="7" fill="#0ea5e9">student@university.edu</text>
  <rect x="195" y="290" width="65" height="10" rx="4" fill="url(#react7)"/>
  <text x="228" y="298" font-family="Arial" font-size="7" fill="white" text-anchor="middle">Register →</text>

  <!-- Tech stack chips bottom right -->
  <rect x="295" y="234" width="245" height="70" rx="7" fill="#0d1827" stroke="#1e344e" stroke-width="1"/>
  <text x="310" y="250" font-family="Arial" font-size="8" fill="#4a7ab5">Tech Stack</text>
  <rect x="310" y="256" width="42" height="14" rx="7" fill="#0ea5e920" stroke="#0ea5e9" stroke-width="0.5"/>
  <text x="331" y="266" font-family="Arial" font-size="7" fill="#0ea5e9" text-anchor="middle">⚛ React</text>
  <rect x="360" y="256" width="55" height="14" rx="7" fill="#3178c620" stroke="#3178c6" stroke-width="0.5"/>
  <text x="387" y="266" font-family="Arial" font-size="7" fill="#3178c6" text-anchor="middle">TS TypeScript</text>
  <rect x="423" y="256" width="50" height="14" rx="7" fill="#68a06320" stroke="#68a063" stroke-width="0.5"/>
  <text x="448" y="266" font-family="Arial" font-size="7" fill="#68a063" text-anchor="middle">⬡ Node.js</text>
  <rect x="481" y="256" width="42" height="14" rx="7" fill="#ca482820" stroke="#ca4828" stroke-width="0.5"/>
  <text x="502" y="266" font-family="Arial" font-size="7" fill="#ca4828" text-anchor="middle">☕ Java</text>
  <rect x="310" y="276" width="55" height="14" rx="7" fill="#f05033" opacity="0.2" stroke="#f05033" stroke-width="0.5"/>
  <text x="337" y="286" font-family="Arial" font-size="7" fill="#f05033" text-anchor="middle">REST API</text>
  <rect x="373" y="276" width="55" height="14" rx="7" fill="#47a24820" stroke="#47a248" stroke-width="0.5"/>
  <text x="400" y="286" font-family="Arial" font-size="7" fill="#47a248" text-anchor="middle">PostgreSQL</text>
</svg>
